<?xml version="1.0" standalone="no"?><!DOCTYPE svg PUBLIC "-//W3C//DTD SVG 1.1//EN" "http://www.w3.org/Graphics/SVG/1.1/DTD/svg11.dtd"><svg t="1743071425304" class="icon" viewBox="0 0 1024 1024" version="1.1" xmlns="http://www.w3.org/2000/svg" p-id="12913" data-spm-anchor-id="a313x.search_index.0.i9.20a63a81aZf9Pr" xmlns:xlink="http://www.w3.org/1999/xlink" width="200" height="200"><path d="M1021.952 297.184c-0.224-0.096-0.384-0.256-0.608-0.256-0.384 0-0.672 0.256-0.992 0.384C374.88 362.304 71.488 643.008-0.032 712.032l9.504 14.944h112.8c293.216-294.752 689.312-392.576 898.784-424.8l0.256 0.096c0.16 0 0.256-0.16 0.416-0.16 1.248-0.256 2.208-1.184 2.208-2.528 0-1.248-0.896-2.08-2.048-2.4zM16.224 448.352l-6.816 12.896 138.464 100.96c21.152-12.736 49.28-27.968 77.952-42.24l7.872-3.552L140.8 448.352z m307.712 134.048a1424.384 1424.384 0 0 0-71.424 56.032l121.696 88.672h126.176l5.248-11.648z" fill="#005288" p-id="12914"></path></svg>